<?xml version="1.0" encoding="utf-8"?>
<!-- Generator: Adobe Illustrator 21.1.0, SVG Export Plug-In . SVG Version: 6.00 Build 0)  -->
<svg version="1.1" id="Layer_1" xmlns="http://www.w3.org/2000/svg" xmlns:xlink="http://www.w3.org/1999/xlink" x="0px" y="0px"
	 viewBox="0 0 143 50" style="enable-background:new 0 0 143 50;" xml:space="preserve">
<style type="text/css">
	.st0{fill:#3284BF;}
	.st1{fill:none;}
</style>
<g>
	<path d="M62,44.1H49.7v-0.2c0.7-0.1,1.3-0.3,1.7-0.8c0.3-0.3,0.3-1.3,0.4-2.2c0-0.7,0-2.7,0-4.2v-3.9c0-0.9,0-2.1-0.3-2.5
		c-0.4-0.4-0.8-0.5-1.5-0.6v-0.2H61l1.4,3.3l-0.2,0.1c-1.1-1.4-2.1-2.3-3.1-2.7c-0.5-0.2-1.8-0.4-3.5-0.4c-0.6,0-1.3,0-1.5,0.1
		c0,0.4-0.1,1.9-0.1,3.7c0,2,0,2.7,0,2.9c0.2,0,1.8,0,2.5-0.2c1.6-0.4,2-1.3,2.3-2.8h0.2V40h-0.2c-0.2-0.8-0.7-1.9-1.2-2.4
		c-0.4-0.4-1-0.6-1.8-0.7c-0.8,0-1,0-1.8,0c0,0.4,0,1.2,0,2c0,0.7,0,1.9,0,2.4c0,0.9,0.1,1.7,0.3,2.1c0.2,0.4,1.3,0.5,2.4,0.5
		c0.4,0,1.2,0,2-0.1c1.7-0.2,2.9-1.2,4.2-3.5l0.2,0.1L62,44.1z"/>
	<path d="M71.1,36.5c-0.8,1-1,1.4-1.7,2.3c0.7,1.4,1.2,2.1,1.9,3.4c1,1.7,1.3,1.7,2.2,1.7v0.2h-4.7v-0.2c0.3,0,0.8,0,0.9-0.6
		c-0.1-0.7-0.8-1.9-1.5-3.1c-0.7,1-1.9,2.6-1.9,3.1c0.2,0.6,0.5,0.7,1.2,0.7v0.2h-4v-0.2c0.7,0,1.2,0.1,2.6-1.5
		c0.8-0.9,1.4-1.9,1.9-2.5c-0.8-1.4-1.3-2.3-2.2-3.7c-0.2-0.3-0.4-0.6-0.6-0.9c-0.5-0.4-1-0.4-1.6-0.5v-0.2h4.9v0.2
		c-0.2,0-0.8,0-1,0.5c0,0.3,0.8,1.8,1.6,3.2c0.7-1.1,1.8-2.6,1.8-3c-0.1-0.6-0.5-0.7-1.2-0.7v-0.2h3.8v0.2
		C72.8,34.9,72.5,34.7,71.1,36.5"/>
	<path d="M80.6,35.8h-3.1v5.3c0,1.4,0.6,2,1.6,2c0.8,0,1.3-0.2,1.6-0.8l0.1,0.1c-0.3,0.8-1.1,1.9-2.8,1.9c-1.1,0-2.2-0.9-2.2-1.8
		c0-2.5,0-4.9,0-6.6h-1.5v-0.2l2.9-2.8h0.2v1.8h3.7L80.6,35.8z"/>
	<path d="M86.6,44.2c-2.8,0-4.6-2.3-4.6-5.1c0-2.3,1.7-4.7,4.3-4.7c2.1,0,3.7,1.1,3.9,3.3h-6.5c0,0.2,0,0.5,0,0.8
		c0,2.3,1.3,4.3,3.8,4.3c1.3,0,2.4-0.8,2.8-1.8l0.2,0C90.2,42.3,88.8,44.2,86.6,44.2 M86.4,34.7c-1.5,0-2.5,2-2.5,2.7
		c1.2,0,1.9,0,3.1,0c0.4,0,0.8,0,1-0.1c0.2-0.2,0.3-0.4,0.3-0.7C88.3,35.6,87.5,34.7,86.4,34.7"/>
	<path d="M97.7,44.1v-0.2c0.7,0,1.2-0.1,1.2-0.5v-5.1c0-1.6-0.5-2.6-1.9-2.6c-0.9,0-1.4,0.4-2.1,1.1v6.6c0.1,0.5,0.5,0.4,1.1,0.5
		v0.2H92v-0.2c0.6-0.1,1.1-0.2,1.1-0.6v-6.9c0-0.2,0-0.3-0.2-0.4c-0.2-0.1-0.6-0.3-0.9-0.5v-0.1l2.6-0.9h0.1v2.2l0,0
		c0.6-0.9,1.8-2.2,3.3-2.2c1.6,0,2.4,1.3,2.4,3.1v5.9c0,0.4,0.8,0.5,1.2,0.5v0.2H97.7z"/>
	<path d="M106.6,44.2c-1.2,0-2.2-0.3-3.1-0.7v-2.7h0.2c0.4,1.3,1.2,3,3,3c1.3,0,2.1-0.7,2.1-2.3c0-0.8-0.6-1.4-1.5-1.6
		c-0.7-0.1-1.4-0.3-2-0.5c-1-0.3-1.7-1.3-1.7-2.5c0-1.7,1.5-2.7,3.2-2.7c1.1,0,2,0.2,2.7,0.5l0.2,2.5l-0.2,0c-0.7-1.6-1.4-2.8-3-2.8
		c-0.9,0-1.8,0.6-1.8,1.9c0,1,0.6,1.4,1.5,1.6c0.6,0.1,1.4,0.3,1.9,0.4c1.2,0.3,2.2,1.3,2.2,2.7C110.4,43.3,108.6,44.2,106.6,44.2"
		/>
	<path d="M112,44.1v-0.2c0.6-0.1,1.4-0.1,1.4-0.6v-6.9c0-0.2,0-0.4-0.2-0.5c-0.2-0.2-0.6-0.3-1-0.5v-0.1l2.7-0.9h0.1v9
		c0.1,0.5,0.7,0.4,1.3,0.5v0.2H112z M114.2,32.3c-0.6,0-1.1-0.5-1.1-1.1c0-0.6,0.5-1.1,1.1-1.1c0.6,0,1.1,0.5,1.1,1.1
		C115.2,31.8,114.8,32.3,114.2,32.3"/>
	<path d="M123,44.2c-2.1,0-4.8-1.6-4.8-5c0-2.5,1.9-4.8,4.9-4.8c2.1,0,4.7,1.6,4.7,4.8C127.7,41.9,125.5,44.2,123,44.2 M122.9,34.7
		c-1.8,0-2.8,2.4-2.8,4.6c0,2.5,0.8,4.6,3,4.6c2.1,0,2.8-2.8,2.8-4.7C125.8,37.3,125.1,34.7,122.9,34.7"/>
	<path d="M135.3,44.1v-0.2c0.7,0,1.2-0.1,1.2-0.5v-5.1c0-1.6-0.5-2.6-1.9-2.6c-0.9,0-1.4,0.4-2.1,1.1v6.6c0.1,0.5,0.5,0.4,1.1,0.5
		v0.2h-3.9v-0.2c0.6-0.1,1.1-0.2,1.1-0.6v-6.9c0-0.2,0-0.3-0.2-0.4c-0.2-0.1-0.6-0.3-0.9-0.5v-0.1l2.6-0.9h0.1v2.2l0,0
		c0.6-0.9,1.8-2.2,3.3-2.2c1.6,0,2.4,1.3,2.4,3.1v5.9c0,0.4,0.8,0.5,1.2,0.5v0.2H135.3z"/>
</g>
<g>
	<path class="st0" d="M3.8,4.1v41.8h41.8V4.1H3.8z M4.3,45.4V4.5h40.8v40.8H4.3z"/>
	<g>
		<polygon class="st1" points="12.7,35.4 9.6,28.2 8.6,28.2 12.2,36.6 10.8,39.9 11.8,39.9 16.8,28.2 15.7,28.2 		"/>
		<path class="st1" d="M28.1,28.1c-0.8,0-1.7,0.2-2.4,0.6l-0.2,0.1v1l0.5-0.3c0.7-0.4,1.3-0.5,2.1-0.5c1.1,0,1.6,0.6,1.6,1.7v0.9
			h-0.7c-2.7,0-4.3,0.9-4.3,2.6c0,1.6,1.4,2.6,3.7,2.6c0.6,0,1.4-0.1,2-0.2l0.2-0.1v-5.8C30.7,29,29.8,28.1,28.1,28.1z M29.7,35.8
			c-0.4,0.1-0.8,0.1-1.3,0.1c-0.8,0-2.7-0.2-2.7-1.6c0-1.3,1.8-1.6,3.3-1.6h0.7V35.8z"/>
		<path class="st1" d="M20.5,35.9c-1,0-1.8-0.3-2.3-0.7l-0.5-0.4v1.2l0.1,0.1c0.7,0.5,1.7,0.8,2.7,0.8c1.1,0,2.1-0.3,2.8-0.9
			l0.1-0.1v-1.2l-0.5,0.4C22.3,35.6,21.5,35.9,20.5,35.9z"/>
		<path class="st1" d="M20.4,28.1c-1,0-1.9,0.3-2.6,0.8L17.7,29v1.1l0.5-0.4c0.6-0.5,1.4-0.7,2.2-0.7c1.5,0,2.4,1,2.5,2.6h-5.2v0.9
			h6.2V32C23.9,29.6,22.5,28.1,20.4,28.1z"/>
		<polygon class="st1" points="10.8,26 11.8,26 11.8,13.8 8.4,14.2 8.4,14.5 8.4,14.9 8.4,15.1 10.8,14.9 		"/>
		<path class="st1" d="M22.5,23.6c1.9,0,3-1.9,3-5.3c0-3.4-1.1-5.3-3-5.3c-1.1,0-3,0.7-3,5.3C19.5,22.9,21.4,23.6,22.5,23.6z
			 M22.5,13.9c1.3,0,2,1.6,2,4.4c0,2.8-0.7,4.3-2,4.3c-1.3,0-2-1.5-2-4.3C20.4,15.4,21.2,13.9,22.5,13.9z"/>
		<polygon class="st1" points="8.4,12 8.4,12.3 14.1,11.3 14.1,26 15,26 15,10.2 8.4,11.3 8.4,11.5 		"/>
		<path class="st1" d="M22.5,26.3c3.7,0,6.2-3.2,6.2-8c0-4.8-2.5-8.1-6.2-8.1c-3.7,0-6.3,3.2-6.3,8.1C16.2,23,18.7,26.3,22.5,26.3z
			 M22.5,11.2c3.2,0,5.3,2.9,5.3,7.1c0,4.2-2.1,7-5.3,7c-3.2,0-5.3-2.8-5.3-7C17.2,14,19.3,11.2,22.5,11.2z"/>
		<path class="st1" d="M40.8,29.6l0.5,0.4v-1.2l-0.1-0.1c-0.6-0.4-1.4-0.6-2.2-0.6c-0.5,0-1,0.1-1.4,0.3l-0.2,0.1v1.2l0.5-0.4
			c0.2-0.2,0.6-0.3,1-0.3C39.6,29.1,40.2,29.3,40.8,29.6z"/>
		<path class="st1" d="M36,10.2c-3.7,0-6.3,3.2-6.3,8.1c0,4.8,2.5,8,6.3,8c2.8,0,4.9-1.8,5.8-4.7c0.3-1,0.5-2.1,0.5-3.3
			c0-1.2-0.2-2.4-0.5-3.4C40.9,12,38.8,10.2,36,10.2z M36,25.3c-3.2,0-5.3-2.8-5.3-7c0-4.2,2.1-7.1,5.3-7.1c3.2,0,5.3,2.9,5.3,7.1
			C41.3,22.5,39.1,25.3,36,25.3z"/>
		<path class="st1" d="M36,12.9c-1.1,0-3,0.7-3,5.3c0,4.6,1.9,5.3,3,5.3c1.9,0,3-1.9,3-5.3C39,14.9,37.9,12.9,36,12.9z M36,22.6
			c-1.3,0-2-1.5-2-4.3c0-2.8,0.7-4.4,2-4.4c1.3,0,2,1.6,2,4.4C38,21,37.3,22.6,36,22.6z"/>
		<path class="st1" d="M39.1,31.9L39.1,31.9c-0.5-0.2-0.8-0.3-1.2-0.6l-0.5-0.4v1.2l0.2,0.1c0.4,0.2,0.8,0.4,1.2,0.6
			c1.3,0.5,1.9,0.8,1.9,1.7c0,1.3-1.2,1.4-1.8,1.4c-0.4,0-0.8-0.1-1.1-0.2l-0.5-0.2l0.1,1.1l0.2,0.1c0.4,0.1,0.8,0.2,1.3,0.2
			c1.6,0,2.7-0.9,2.7-2.4C41.6,32.8,40.2,32.3,39.1,31.9z"/>
		<path class="st1" d="M35,28.2c-1,0-2,0.3-2.8,0.9l-0.1,0.1v7.6h1v-7.1c0.5-0.3,1.3-0.5,2-0.5c0.3,0,0.6,0,0.9,0.1l0.4,0.1v-1
			l-0.3,0C35.7,28.2,35.4,28.2,35,28.2z"/>
		<path class="st0" d="M25.8,34.3c0,1.5,1.9,1.6,2.7,1.6c0.4,0,0.8,0,1.3-0.1v-3.1h-0.7C27.6,32.6,25.8,32.9,25.8,34.3z"/>
		<path class="st0" d="M22.5,22.6c1.3,0,2-1.6,2-4.3c0-2.8-0.7-4.4-2-4.4c-1.3,0-2,1.6-2,4.4C20.4,21.1,21.2,22.6,22.5,22.6z"/>
		<path class="st0" d="M36,13.9c-1.3,0-2,1.6-2,4.4c0,2.8,0.7,4.3,2,4.3c1.3,0,2-1.6,2-4.3C38,15.5,37.3,13.9,36,13.9z"/>
		<path class="st0" d="M22.5,25.3c3.2,0,5.3-2.8,5.3-7c0-4.2-2.1-7.1-5.3-7.1c-3.2,0-5.3,2.9-5.3,7.1C17.2,22.5,19.3,25.3,22.5,25.3
			z M22.5,12.9c1.9,0,3,1.9,3,5.3c0,3.4-1.1,5.3-3,5.3c-1.1,0-3-0.7-3-5.3C19.5,13.6,21.4,12.9,22.5,12.9z"/>
		<path class="st0" d="M5.5,5.7v38.6H44V5.7H5.5z M22.5,10.2c3.7,0,6.2,3.2,6.2,8.1c0,4.8-2.5,8-6.2,8c-3.7,0-6.3-3.2-6.3-8
			C16.2,13.4,18.7,10.2,22.5,10.2z M15,10.2V26h-1V11.3l-5.7,0.9V12v-0.5v-0.2L15,10.2z M8.4,14.9v-0.5v-0.2l3.4-0.4V26h-1V14.9
			l-2.5,0.3V14.9z M11.8,39.9h-1.1l1.4-3.3l-3.6-8.4h1.1l3.1,7.2l3-7.2h1.1L11.8,39.9z M23.5,35.8l-0.1,0.1
			c-0.7,0.6-1.7,0.9-2.8,0.9c-1.1,0-2-0.3-2.7-0.8l-0.1-0.1v-1.2l0.5,0.4c0.5,0.5,1.4,0.7,2.3,0.7c1,0,1.8-0.3,2.4-0.8l0.5-0.4V35.8
			z M23.9,32.6h-6.2v-0.9h5.2c-0.1-1.6-1-2.6-2.5-2.6c-0.8,0-1.6,0.3-2.2,0.7l-0.5,0.4V29l0.1-0.1c0.7-0.5,1.6-0.8,2.6-0.8
			c2.2,0,3.5,1.5,3.5,3.9V32.6z M30.7,36.5l-0.2,0.1c-0.6,0.2-1.4,0.2-2,0.2c-2.3,0-3.7-1-3.7-2.6c0-1.6,1.6-2.6,4.3-2.6h0.7v-0.9
			c0-1.1-0.5-1.7-1.6-1.7c-0.7,0-1.4,0.2-2.1,0.5l-0.5,0.3v-1l0.2-0.1c0.7-0.4,1.5-0.6,2.4-0.6c1.7,0,2.6,0.9,2.6,2.6V36.5z
			 M36.3,29.3l-0.4-0.1c-0.3-0.1-0.6-0.1-0.9-0.1c-0.7,0-1.5,0.2-2,0.5v7.1h-1v-7.6l0.1-0.1c0.8-0.6,1.8-0.9,2.8-0.9
			c0.4,0,0.7,0,1,0.1l0.3,0V29.3z M38.9,36.8c-0.4,0-0.9-0.1-1.3-0.2l-0.2-0.1l-0.1-1.1l0.5,0.2c0.3,0.1,0.7,0.2,1.1,0.2
			c0.5,0,1.8-0.1,1.8-1.4c0-0.9-0.6-1.2-1.9-1.7c-0.5-0.2-0.9-0.4-1.2-0.6l-0.2-0.1v-1.2l0.5,0.4c0.4,0.3,0.7,0.4,1.2,0.6l0.1,0
			c1.1,0.4,2.5,0.9,2.5,2.6C41.6,35.9,40.5,36.8,38.9,36.8z M37.4,29.7v-1.2l0.2-0.1c0.4-0.2,0.8-0.3,1.4-0.3c0.9,0,1.6,0.2,2.2,0.6
			l0.1,0.1V30l-0.5-0.4c-0.5-0.4-1.2-0.6-1.9-0.6c-0.4,0-0.8,0.1-1,0.3L37.4,29.7z M41.7,21.6c-0.9,2.9-3,4.7-5.8,4.7
			c-3.7,0-6.3-3.2-6.3-8c0-4.8,2.5-8.1,6.3-8.1c2.8,0,4.9,1.8,5.8,4.7c0.3,1,0.5,2.1,0.5,3.4C42.2,19.5,42.1,20.6,41.7,21.6z"/>
		<path class="st0" d="M36,11.2c-3.2,0-5.3,2.9-5.3,7.1c0,4.2,2.1,7,5.3,7c3.2,0,5.3-2.8,5.3-7C41.3,14,39.1,11.2,36,11.2z M36,23.6
			c-1.1,0-3-0.7-3-5.3c0-4.6,1.9-5.3,3-5.3c1.9,0,3,1.9,3,5.3C39,21.6,37.9,23.6,36,23.6z"/>
	</g>
</g>
<g>
	<path class="st0" d="M49.8,18.9c-0.1-0.7,0-1.6,0-2.1l1-11.2h3.7l-1,11.3c-0.2,2.4,0.7,4.2,3.2,4.2c2.5,0,3.8-1.8,4-3.9l1-11.5h3.7
		l-1,11.4c-0.4,4.4-3.3,7.7-8,7.7C52.6,24.7,50.2,22.3,49.8,18.9"/>
	<path class="st0" d="M66.7,15.1c0.5-5.4,4.1-9.8,10.3-9.8c1.6,0,3.2,0.4,4.8,1.4l-0.4,4.4c-1.4-1.9-3.2-2.2-4.7-2.2
		c-3.9,0-6,2.7-6.3,6.1c-0.3,3.3,1.4,6,5.2,6c1.6,0,3.4-0.5,5.2-2.3l-0.4,4.5c-1.8,1-3.4,1.4-5.1,1.4C69.1,24.7,66.3,20.1,66.7,15.1
		"/>
	<path class="st0" d="M84.8,5.7h3.6l-1.3,15.2h5.2c0.4,0,1.6,0,2,0c0,0.2-0.3,3.5-0.3,3.5H83.1L84.8,5.7z"/>
	<path class="st0" d="M104.7,4.8l-0.3,0l-10,19.5h3.9l1.4-3h7l0.9,3l3.9,0L104.7,4.8z M103.8,12.6c0.1-0.3,0.2-0.6,0.3-0.8
		c0,0,0.1,0,0.1,0c0,0.2,0.1,0.5,0.1,0.8c0.2,0.8,1.6,5.6,1.6,5.6h-4.6C101.3,18.2,103.7,12.7,103.8,12.6"/>
</g>
</svg>
